<svg width="1441" height="500" viewBox="0 0 1441 500" fill="none" xmlns="http://www.w3.org/2000/svg">
<path d="M228.184 383.672H79.3377C79.3377 383.672 79.3377 383.672 79.3377 383.847C79.3377 384.198 79.3377 384.548 79.5132 384.899C79.6887 385.775 79.8643 386.651 80.2153 387.351C80.2153 387.702 80.2153 387.877 80.3908 388.227C80.7419 389.278 81.0929 390.154 81.444 391.206C81.444 391.556 81.6195 391.906 81.795 392.257C81.795 392.607 82.1461 392.957 82.3216 393.308C82.3216 393.658 82.4971 394.009 82.6727 394.184C82.6727 394.184 82.6727 394.359 82.6727 394.534C82.6727 394.709 82.8482 395.06 83.0237 395.235C83.0237 395.235 83.0237 395.41 83.0237 395.585C83.0237 395.936 83.3748 396.111 83.5503 396.461C83.5503 396.636 83.9014 396.987 83.9014 397.162C84.0769 397.512 84.4279 398.038 84.6035 398.388C84.779 398.739 84.9545 399.089 85.3056 399.44C85.4811 399.79 85.6566 400.14 86.0077 400.491C86.1832 400.841 86.5342 401.192 86.7098 401.542C86.8853 401.892 87.2363 402.243 87.4119 402.418C87.5874 402.768 87.9384 402.943 88.114 403.294C88.2895 403.644 88.6405 403.995 88.8161 404.17C88.9916 404.52 89.3426 404.695 89.5182 405.046C90.2203 405.922 91.0979 406.798 91.9755 407.498C92.3266 407.849 92.5021 408.024 92.8532 408.374C93.3797 408.9 93.9063 409.426 94.6084 409.951C94.9595 410.126 95.135 410.477 95.4861 410.652C96.3637 411.353 97.2413 412.053 98.2945 412.754C99.1721 413.455 100.225 413.981 101.278 414.681C101.629 414.857 101.981 415.032 102.332 415.207C103.034 415.557 103.736 415.908 104.438 416.258C104.789 416.433 105.14 416.608 105.491 416.784C106.544 417.309 107.597 417.835 108.65 418.185C109.002 418.185 109.353 418.536 109.704 418.536C110.055 418.536 110.406 418.711 110.757 418.886C111.108 418.886 111.459 419.061 111.81 419.236C112.161 419.236 112.512 419.412 112.863 419.587C113.214 419.587 113.565 419.762 114.092 419.937C114.443 419.937 114.794 419.937 115.145 420.112C115.145 420.112 115.145 420.112 115.32 420.112C115.672 420.112 116.023 420.112 116.374 420.287C116.725 420.287 117.076 420.287 117.602 420.463C117.953 420.463 118.48 420.463 118.831 420.638C119.182 420.638 119.709 420.638 120.06 420.638C120.06 420.638 120.762 420.638 121.113 420.638C121.639 420.638 121.99 420.638 122.517 420.638C123.746 420.638 124.974 420.638 126.203 420.638C127.432 420.638 128.66 420.638 129.889 420.638C130.767 420.638 131.644 420.638 132.346 420.463H133.4C133.4 420.463 134.102 420.112 134.628 420.112C134.979 420.112 135.506 420.112 135.857 419.937C136.384 419.937 136.735 419.762 137.261 419.587C137.612 419.587 137.963 419.587 138.139 419.412C138.49 419.412 138.841 419.236 139.368 419.061C139.719 419.061 140.07 418.886 140.421 418.711C140.772 418.711 141.123 418.536 141.474 418.36C141.825 418.36 142.176 418.01 142.527 418.01C142.878 418.01 143.229 417.835 143.58 417.66C144.633 417.309 145.686 416.784 146.74 416.258C147.091 416.258 147.442 415.908 147.793 415.732C148.144 415.732 148.495 415.382 148.846 415.207C149.197 415.207 149.548 414.857 149.724 414.681C150.075 414.681 150.25 414.331 150.601 414.156C151.654 413.455 152.532 412.929 153.585 412.229C154.638 411.528 155.516 410.827 156.394 410.126C156.745 409.951 156.92 409.601 157.271 409.426C157.798 408.9 158.5 408.374 159.026 407.849C159.904 406.973 160.782 406.097 161.659 405.221H200.977C196.589 415.382 190.094 424.492 182.196 432.025C181.143 432.901 180.265 433.777 179.212 434.653C178.685 435.004 178.159 435.529 177.632 435.88C176.052 437.106 174.473 438.332 172.893 439.383C171.313 440.435 169.558 441.661 167.978 442.712C167.452 443.063 166.925 443.413 166.398 443.588C166.398 443.588 166.398 443.588 166.223 443.588C165.696 443.938 165.17 444.114 164.643 444.464C164.117 444.814 163.415 445.165 162.888 445.34C162.361 445.69 161.659 445.866 161.133 446.216C159.377 447.092 157.447 447.793 155.691 448.669C155.165 448.844 154.463 449.194 153.761 449.369C153.059 449.545 152.532 449.895 151.83 450.07C151.128 450.245 150.601 450.421 149.899 450.596C149.197 450.771 148.67 450.946 147.968 451.121C147.266 451.297 146.74 451.472 146.037 451.647C145.511 451.647 144.984 451.997 144.458 451.997C143.756 452.173 142.878 452.348 142.176 452.523C141.474 452.523 140.772 452.873 140.245 452.873C139.543 452.873 138.841 453.049 138.139 453.224C137.437 453.224 136.91 453.399 136.208 453.574C134.804 453.574 133.4 453.924 131.995 453.924C129.889 453.924 127.783 454.1 125.676 454.1C123.57 454.1 121.464 454.1 119.358 453.924C118.48 453.924 117.778 453.924 116.9 453.749C116.374 453.749 115.847 453.749 115.145 453.574C115.145 453.574 113.741 453.399 113.214 453.224C112.512 453.224 111.81 453.049 111.108 452.873C110.406 452.873 109.704 452.698 109.177 452.523C108.475 452.523 107.948 452.348 107.422 452.173C107.422 452.173 107.246 452.173 107.071 452.173C106.544 452.173 105.842 451.822 105.316 451.647C104.613 451.647 104.087 451.297 103.385 451.121C102.683 451.121 102.156 450.771 101.454 450.596C100.752 450.421 100.225 450.245 99.5232 450.07C98.821 449.895 98.2945 449.72 97.5924 449.369C96.8903 449.194 96.3637 448.844 95.6616 448.669C93.7308 447.968 91.9755 447.092 90.2203 446.216C89.6937 445.866 88.9916 445.69 88.465 445.34C87.2363 444.814 86.1832 444.114 84.9545 443.413C84.4279 443.063 83.7258 442.712 83.1992 442.362C81.444 441.311 79.8643 440.259 78.2845 439.033C76.7048 437.982 75.1251 436.756 73.5453 435.529C73.0187 435.179 72.4922 434.653 71.9656 434.303C70.9124 433.427 70.0348 432.551 68.9817 431.675C68.4551 431.149 68.104 430.799 67.5774 430.273C66.1732 428.872 64.769 427.47 63.5404 425.894C63.0138 425.368 62.6627 424.842 62.3117 424.317C61.9606 423.791 61.434 423.266 61.083 422.74C60.7319 422.215 60.2054 421.689 59.8543 421.163C59.5033 420.638 59.1522 420.112 58.6256 419.587C58.2746 419.061 57.9235 418.536 57.5725 418.01C57.2214 417.484 56.8704 416.959 56.5193 416.433C56.1683 415.908 55.8172 415.382 55.4662 414.681C55.1151 413.981 54.5885 413.28 54.2375 412.579C54.062 412.229 53.7109 411.703 53.5354 411.177C53.1843 410.652 53.0088 410.126 52.6578 409.601C52.6578 409.601 52.6578 409.25 52.4822 409.075C52.3067 408.725 52.1312 408.199 51.7801 407.849C51.7801 407.849 51.7801 407.498 51.6046 407.323C51.4291 406.798 51.078 406.272 50.9025 405.747C50.5514 405.221 50.3759 404.52 50.0249 403.995C49.8493 403.469 49.4983 402.943 49.3228 402.418C48.6207 400.666 48.0941 399.089 47.392 397.337C47.392 396.812 47.0409 396.461 47.0409 395.936C46.6899 394.534 46.1633 393.133 45.8122 391.731C45.8122 391.03 45.4612 390.505 45.2857 389.804C45.2857 389.278 45.1101 388.753 44.9346 388.227C44.9346 387.877 44.9346 387.526 44.7591 387.176C44.7591 386.651 44.7591 386.3 44.5836 385.95C44.5836 385.424 44.408 384.723 44.2325 384.198C44.2325 384.198 44.2325 384.023 44.2325 383.847C44.2325 383.322 44.2325 382.796 44.057 382.095C44.057 381.395 44.057 380.869 43.8815 380.168C43.8815 379.468 43.8815 378.942 43.8815 378.241C43.8815 376.314 43.7059 374.212 43.7059 372.285C43.7059 351.262 51.7801 330.414 67.753 314.471C83.5503 298.704 104.087 290.82 124.623 290.47H125.676C127.783 290.47 129.889 290.47 131.995 290.645C133.4 290.645 134.804 290.82 136.208 290.995C136.91 290.995 137.437 291.171 138.139 291.346C138.841 291.346 139.543 291.521 140.245 291.696C140.947 291.696 141.649 291.871 142.176 292.047C143.054 292.047 143.756 292.397 144.458 292.572C144.984 292.572 145.511 292.747 146.037 292.922C146.74 292.922 147.442 293.273 147.968 293.448C148.67 293.623 149.197 293.798 149.899 293.974C150.601 294.149 151.128 294.324 151.83 294.674C152.532 294.85 153.059 295.025 153.761 295.375C154.463 295.55 154.989 295.901 155.691 296.076C157.622 296.777 159.377 297.653 161.133 298.529C161.659 298.879 162.361 299.054 162.888 299.405C163.415 299.755 164.117 299.93 164.643 300.281C165.17 300.631 165.696 300.806 166.223 301.157C166.223 301.157 166.223 301.157 166.398 301.157C166.925 301.507 167.452 301.857 167.978 302.032C169.733 303.084 171.313 304.135 172.893 305.361C174.473 306.412 176.052 307.639 177.632 308.865C178.159 309.215 178.685 309.741 179.212 310.091C180.265 310.967 181.143 311.843 182.196 312.719C182.722 313.245 183.073 313.595 183.6 314.121C195.009 325.333 202.908 339.874 206.067 356.167H251.353C243.63 293.798 190.27 245.445 125.676 245.445H0V371.934C0 443.413 56.6948 500 126.73 500C196.764 500 247.842 448.844 252.933 383.672H228.359H228.184Z" fill="#C22026"/>
<path d="M170.089 352.488C170.089 352.488 169.562 351.437 169.387 351.086C169.211 350.736 169.035 350.385 168.684 350.035C168.509 349.685 168.158 349.159 167.982 348.809C167.631 348.283 167.28 347.758 166.929 347.057C166.929 347.057 166.929 347.057 166.929 346.882C166.929 346.531 166.578 346.356 166.403 346.006C166.227 345.83 166.052 345.48 165.876 345.305C165.525 344.779 165.174 344.254 164.647 343.728C164.647 343.728 164.647 343.553 164.472 343.378C164.121 343.027 163.77 342.502 163.419 342.151C163.419 342.151 163.068 341.801 163.068 341.626C162.892 341.451 162.541 341.1 162.366 340.925C162.014 340.575 161.663 340.224 161.312 339.874C160.961 339.524 160.61 339.173 160.259 338.998C159.733 338.472 159.206 337.947 158.504 337.421C158.153 337.246 157.977 336.896 157.626 336.72C156.749 336.02 155.871 335.319 154.818 334.618C153.94 333.917 152.887 333.392 151.834 332.691C151.483 332.516 151.132 332.341 150.956 332.165C150.605 332.165 150.254 331.815 150.079 331.64C149.728 331.465 149.377 331.289 149.026 331.114C148.675 331.114 148.323 330.764 147.972 330.589C146.919 330.063 145.866 329.538 144.813 329.187C144.462 329.187 144.111 328.837 143.76 328.837C143.409 328.837 143.058 328.662 142.707 328.486C142.356 328.486 142.005 328.311 141.653 328.136C141.302 328.136 140.951 327.961 140.6 327.786C140.249 327.786 139.898 327.61 139.372 327.435C139.021 327.435 138.67 327.435 138.494 327.26C137.967 327.26 137.616 327.085 137.09 326.91C136.739 326.91 136.388 326.91 135.861 326.734C135.51 326.734 135.159 326.734 134.632 326.559H133.579C133.579 326.559 131.824 326.209 131.122 326.209C129.893 326.209 128.665 326.209 127.436 326.209H126.909C126.909 326.209 126.032 326.209 125.681 326.209C124.979 326.209 124.452 326.209 123.75 326.209C123.223 326.209 122.872 326.209 122.346 326.209C122.346 326.209 121.995 326.209 121.819 326.209C121.819 326.209 121.468 326.209 121.292 326.209C121.292 326.209 120.415 326.209 120.064 326.209C119.888 326.209 119.713 326.209 119.537 326.209C118.66 326.209 117.606 326.559 116.729 326.734C116.729 326.734 116.729 326.734 116.553 326.734C116.202 326.734 115.851 326.734 115.5 326.91C115.149 326.91 114.798 326.91 114.623 327.085C114.623 327.085 114.623 327.085 114.447 327.085C114.096 327.085 113.745 327.26 113.394 327.435C113.043 327.435 112.692 327.61 112.341 327.786C111.99 327.786 111.639 327.961 111.288 328.136C110.936 328.136 110.585 328.486 110.234 328.486C109.708 328.662 109.181 329.012 108.655 329.187C108.128 329.362 107.601 329.713 107.075 329.888C106.724 329.888 106.373 330.238 106.022 330.414C105.671 330.414 105.32 330.764 104.969 330.939C104.618 331.114 104.266 331.289 103.915 331.465C103.74 331.465 103.389 331.815 103.213 331.815C103.213 331.815 103.038 331.815 102.862 331.99C102.336 332.341 101.809 332.691 101.458 333.041C101.107 333.392 100.58 333.567 100.229 333.917C99.3518 334.618 98.4741 335.144 97.772 335.845C97.772 335.845 97.772 335.845 97.5965 336.02C97.421 336.195 97.0699 336.37 96.8944 336.72C96.5433 336.896 96.3678 337.246 96.0168 337.421C95.6657 337.596 95.4902 337.947 95.1391 338.297C95.1391 338.297 94.9636 338.648 94.7881 338.648C94.7881 338.648 94.437 338.823 94.437 338.998C94.437 338.998 92.8573 340.75 91.9797 341.626C91.8041 341.976 91.4531 342.151 91.2776 342.502C91.102 342.852 90.751 343.027 90.5755 343.378C90.3999 343.728 90.0489 343.903 89.8734 344.254C89.6978 344.604 89.3468 344.955 89.1713 345.13C88.9957 345.48 88.8202 345.83 88.4692 346.181C88.2936 346.531 88.1181 346.882 87.7671 347.057C87.5915 347.407 87.416 347.758 87.0649 348.108C87.0649 348.283 86.7139 348.634 86.5384 348.809C86.5384 348.809 86.5384 348.984 86.3628 349.159C86.3628 349.334 86.0118 349.685 86.0118 350.035C86.0118 350.035 86.0118 350.21 86.0118 350.385C86.0118 350.561 85.8363 350.736 85.6607 350.911C85.6607 350.911 85.6607 351.086 85.6607 351.261C85.6607 351.437 85.4852 351.787 85.3097 351.962C85.3097 352.313 84.9586 352.663 84.9586 352.838C84.9586 353.189 84.6076 353.539 84.4321 353.889C84.4321 354.24 84.081 354.59 84.081 354.94C83.73 355.641 83.5544 356.342 83.3789 357.043H175.003C174.301 355.291 173.599 353.539 172.897 351.787" fill="#C22026"/>
<path d="M311.366 305.536H259.586L315.579 462.859H375.257L431.25 305.536H379.821L345.594 417.834L311.366 305.536ZM523.226 465.136C538.672 465.136 552.714 461.808 565.176 455.326C577.639 448.668 587.644 439.208 594.84 426.944C602.037 414.681 605.723 400.49 605.723 384.197C605.723 367.905 602.212 353.714 595.016 341.45C587.819 329.187 577.99 319.727 565.703 313.069C553.241 306.412 539.374 303.258 523.928 303.258C508.482 303.258 494.44 306.587 482.153 313.069C469.69 319.727 459.861 329.187 452.84 341.45C445.643 353.714 442.133 368.08 442.133 384.197C442.133 400.315 445.643 414.856 452.664 427.12C459.685 439.383 469.515 448.668 481.802 455.326C494.088 461.983 507.955 465.136 523.401 465.136M523.226 423.441C513.923 423.441 506.375 420.112 500.232 413.279C494.088 406.447 491.105 396.811 491.105 384.197C491.105 371.584 494.264 361.773 500.407 354.94C506.551 348.283 514.449 344.954 523.928 344.954C533.406 344.954 540.954 348.283 547.273 355.115C553.592 361.948 556.751 371.584 556.751 384.197C556.751 396.811 553.592 406.447 546.922 413.279C540.427 420.112 532.529 423.441 523.401 423.441M631.525 462.859H679.795V254.029H631.525V462.859ZM822.322 305.536V391.03C822.322 401.542 819.513 409.776 814.072 415.557C808.631 421.338 801.083 424.317 791.78 424.317C782.477 424.317 775.281 421.338 769.664 415.557C764.223 409.776 761.414 401.542 761.414 391.03V305.536H713.32V397.512C713.32 411.177 715.953 423.265 721.043 433.427C726.134 443.588 733.33 451.296 742.458 456.727C751.76 462.158 762.292 464.786 774.403 464.786C784.584 464.786 793.887 462.684 802.312 458.479C810.737 454.275 817.407 448.668 822.146 441.661V463.034H870.416V305.711H822.146L822.322 305.536ZM976.082 422.039C970.817 422.039 966.955 420.988 964.849 418.886C962.567 416.783 961.514 413.455 961.514 408.724V345.48H993.109V305.361H961.514V266.994H913.244V305.361H893.936V345.48H913.244V408.024C913.244 427.47 918.159 441.31 927.988 449.895C937.818 458.479 951.509 462.684 968.886 462.684H993.459V421.864H976.258L976.082 422.039ZM1020.14 462.859H1068.41V305.536H1020.14V462.859ZM1175.3 465.136C1190.75 465.136 1204.79 461.808 1217.25 455.326C1229.72 448.668 1239.72 439.208 1246.92 426.944C1254.12 414.681 1257.8 400.49 1257.8 384.197C1257.8 367.905 1254.29 353.714 1247.09 341.45C1239.9 329.187 1230.07 319.727 1217.78 313.069C1205.32 306.412 1191.45 303.258 1176.01 303.258C1160.56 303.258 1146.52 306.587 1134.23 313.069C1121.77 319.727 1111.94 329.187 1104.92 341.45C1097.72 353.714 1094.21 368.08 1094.21 384.197C1094.21 400.315 1097.72 414.856 1104.74 427.12C1111.76 439.383 1121.59 448.668 1133.88 455.326C1146.17 461.983 1160.03 465.136 1175.48 465.136M1175.3 423.441C1166 423.441 1158.45 420.112 1152.31 413.279C1146.17 406.447 1143.18 396.811 1143.18 384.197C1143.18 371.584 1146.34 361.773 1152.49 354.94C1158.63 348.283 1166.53 344.954 1176.01 344.954C1185.48 344.954 1193.03 348.283 1199.35 355.115C1205.67 361.948 1208.83 371.584 1208.83 384.197C1208.83 396.811 1205.67 406.447 1199 413.279C1192.51 420.112 1184.61 423.441 1175.48 423.441M1379.62 303.784C1369.26 303.784 1359.96 305.711 1351.71 309.916C1343.46 313.945 1336.79 319.376 1331.87 326.384V305.536H1283.6V462.859H1331.87V377.365C1331.87 366.853 1334.68 358.619 1340.12 352.838C1345.56 347.057 1352.94 344.078 1362.24 344.078C1371.54 344.078 1378.74 347.057 1384.36 352.838C1389.8 358.619 1392.61 366.853 1392.61 377.365V462.859H1440.7V370.883C1440.7 350.035 1435.26 333.567 1424.2 321.654C1413.14 309.741 1398.4 303.784 1379.97 303.784" fill="#C22026"/>
<path d="M1044.71 276.98C1060.68 276.98 1073.49 264.016 1073.49 248.248C1073.49 232.481 1060.51 219.517 1044.71 219.517C1028.91 219.517 1015.92 232.481 1015.92 248.248C1015.92 264.016 1028.91 276.98 1044.71 276.98Z" fill="#C22026"/>
<path d="M1380.16 225.122V234.057H1367.88V271.373H1356.64V234.057H1344.36V225.122H1380.16Z" fill="#C22026"/>
<path d="M1427.21 225.122L1414.22 257.183L1401.23 225.122H1387.89V271.373H1399.13V243.518L1409.66 271.373H1418.79L1429.14 243.518V271.373H1440.38V225.122H1427.21Z" fill="#C22026"/>
<path d="M127.764 126.489C101.961 126.489 83.3555 108.62 83.3555 80.7639C83.3555 52.9083 101.61 35.0387 127.764 35.0387C153.917 35.0387 171.469 52.3827 171.469 78.8368C171.469 81.6399 171.469 84.6181 170.767 87.4212H105.998C107.051 100.561 116.003 107.919 127.237 107.919C136.891 107.919 142.157 103.189 144.965 97.232H169.188C164.448 113.525 149.704 126.489 127.764 126.489ZM106.174 72.5299H148.3C147.949 60.792 138.646 53.6091 127.237 53.6091C116.53 53.6091 108.105 60.4416 106.349 72.5299" fill="#C22026"/>
<path d="M216.031 35.0387C230.248 35.0387 240.078 41.696 245.344 49.0541V36.4402H267.811V126.139H245.344V111.948C240.078 119.657 230.073 126.314 215.855 126.314C193.388 126.314 175.484 107.919 175.484 80.4135C175.484 52.9083 193.388 35.0387 215.855 35.0387M221.823 54.8354C209.887 54.8354 198.478 63.7702 198.478 80.5887C198.478 97.4072 209.887 106.868 221.823 106.868C233.759 106.868 245.344 97.5824 245.344 80.7639C245.344 63.9454 234.11 54.8354 221.823 54.8354Z" fill="#C22026"/>
<path d="M286.95 54.8356H276.418V36.4404H286.95V6.65765H309.417V36.4404H329.251V54.8356H309.417V98.9841C309.417 104.941 311.874 107.393 318.895 107.393H329.251V126.139H315.209C298.183 126.139 286.95 118.956 286.95 98.6338V54.6604V54.8356Z" fill="#C22026"/>
<path d="M339.121 6.83278H361.588V47.4775C367.381 39.9442 377.21 35.214 389.146 35.214C409.156 35.214 423.725 48.7038 423.725 73.0556V126.314H401.433V76.2091C401.433 62.0184 393.534 54.31 381.774 54.31C370.014 54.31 361.764 62.0184 361.764 76.2091V126.314H339.297V6.83278H339.121Z" fill="#C22026"/>
<path d="M473.892 126.489C448.09 126.489 429.484 108.62 429.484 80.7639C429.484 52.9083 447.739 35.0387 473.892 35.0387C500.046 35.0387 517.598 52.3827 517.598 78.8368C517.598 81.6399 517.598 84.6181 516.896 87.4212H452.127C453.18 100.561 462.132 107.919 473.366 107.919C483.02 107.919 488.286 103.189 491.094 97.232H515.317C510.577 113.525 495.833 126.489 473.892 126.489ZM452.303 72.5299H494.429C494.078 60.792 484.775 53.6091 473.366 53.6091C462.659 53.6091 454.234 60.4416 452.478 72.5299" fill="#C22026"/>
<path d="M546.581 126.314H524.113V36.6153H546.581V50.2803C552.197 41.1703 561.5 35.2138 573.787 35.2138V58.6896H567.819C554.479 58.6896 546.581 63.7702 546.581 80.939V126.314Z" fill="#C22026"/>
<path d="M677.023 126.314H665.789V37.8417H677.023V53.2586C681.762 42.5719 691.942 36.265 706.862 36.265V47.8277H703.878C689.309 47.8277 677.023 54.3098 677.023 76.2089V126.139V126.314Z" fill="#C22026"/>
<path d="M717.199 8.93494C717.199 4.20474 720.885 0.876083 725.273 0.876083C729.662 0.876083 733.523 4.20474 733.523 8.93494C733.523 13.6651 729.837 17.169 725.273 17.169C720.71 17.169 717.199 13.6651 717.199 8.93494ZM719.657 36.265H730.89V126.314H719.657V36.265Z" fill="#C22026"/>
<path d="M784.41 126.314C759.661 126.314 741.582 109.145 741.582 81.4649C741.582 53.7845 759.31 36.6156 784.41 36.6156C809.511 36.6156 825.659 54.8356 825.659 77.0851C825.659 80.589 825.659 82.8665 825.308 85.8447H752.816C753.693 106.342 768.086 117.029 784.235 117.029C799.155 117.029 809.159 109.145 812.319 97.5826H824.079C820.042 114.051 806 126.489 784.059 126.489M752.991 76.5595H814.425C814.952 56.2372 800.208 46.076 784.059 46.076C767.911 46.076 754.395 56.2372 752.991 76.5595Z" fill="#C22026"/>
<path d="M902.014 75.1577C902.014 55.8865 891.483 45.9005 875.51 45.9005C859.537 45.9005 847.777 56.0617 847.777 77.4352V126.314H836.543V36.265H847.777V52.7331C853.393 41.8711 864.627 36.265 877.616 36.265C897.45 36.265 913.072 48.3532 913.072 73.9314V126.314H902.014V75.1577Z" fill="#C22026"/>
<path d="M965.001 36.6155C980.623 36.6155 993.788 45.2 999.405 56.7627V6.83278H1010.64V126.314H999.405V105.466C994.314 117.029 982.203 126.139 964.826 126.139C940.779 126.139 923.051 108.444 923.051 81.1144C923.051 53.7844 940.779 36.4403 965.001 36.4403M966.932 46.2511C948.502 46.2511 934.46 59.0402 934.46 81.1144C934.46 103.189 948.502 116.328 966.932 116.328C985.362 116.328 999.405 102.838 999.405 81.2896C999.405 59.7409 984.836 46.2511 966.932 46.2511Z" fill="#C22026"/>
<path d="M1040.2 6.83232H1028.97V126.314H1040.2V6.83232Z" fill="#C22026"/>
<path d="M1073.35 166.083L1090.2 124.562L1054.39 37.8416H1066.68L1096.52 112.123L1125.3 37.8416H1136.71L1084.93 166.083" fill="#C22026"/>
<path d="M8.23438 0V126.314H33.3346V72.1793H73.3545V52.3826H33.3346V20.3223H85.4658V0H8.23438Z" fill="#C22026"/>
<path d="M589.75 0V126.489H602.212V67.4492H648.902V57.1128H602.212V10.3364H657.503V0H589.75Z" fill="#C22026"/>
</svg>
